<svg xmlns="http://www.w3.org/2000/svg" viewBox="0 0 118.34 125.34"><defs><style>.cls-1{fill:#bc3224;}</style></defs><title>Logo DP</title><g id="Capa_2" data-name="Capa 2"><g id="Capa_1-2" data-name="Capa 1"><path class="cls-1" d="M115.38,41.42a19.4,19.4,0,0,0-8.88-6.61q-5.94-2.4-15.21-2.41c-.86,0-1.71,0-2.56.05A30.26,30.26,0,0,0,78.36,9.36Q68,0,50.46,0A55.19,55.19,0,0,0,24.63,6,46.17,46.17,0,0,0,6.51,22.25,38.67,38.67,0,0,0,0,43.35,22.07,22.07,0,0,0,4.34,56.11q3.18,4.45,6.56,4.45a3.72,3.72,0,0,0,2.71-1.18,3.68,3.68,0,0,0,1.18-2.7,3.37,3.37,0,0,0-.6-2,8.77,8.77,0,0,0-2.64-2A12.65,12.65,0,0,1,4.44,40.75q0-8.31,5.81-17.1A42.42,42.42,0,0,1,26,9.52,44.22,44.22,0,0,1,47.19,4.19q13.32,0,21.56,8.6Q76.52,20.91,77,33.94A47,47,0,0,0,52.45,48q-10.76,11.55-11,25.5c-.57,0-1.13,0-1.71,0a50.38,50.38,0,0,1-9.64-1.08q5.66-9.78,10.15-28.95l4.19-17.71a120.8,120.8,0,0,1,4.82-16,112.51,112.51,0,0,1-16.3,2.79l-.64,2.73a15,15,0,0,1,1.78-.19,2.46,2.46,0,0,1,1.77.6,2.13,2.13,0,0,1,.64,1.62A11.29,11.29,0,0,1,36.1,20L31,40.69,26.65,57.26C24.53,63.77,22.86,68,21.64,70A6.07,6.07,0,0,1,19.2,72.3c-1,.47-3.38.8-7.27,1l-1.46,3.11q5.83-.2,8.69-.19,6.15,0,13,.5c4,.32,7.15.51,9.4.6a20.88,20.88,0,0,0,3.35,10q3.51,5.14,7.27,5.14a3.45,3.45,0,0,0,2.42-1,3.1,3.1,0,0,0,1-2.35q0-2.16-3.11-4.44a17.25,17.25,0,0,1-5.2-5.81,12.51,12.51,0,0,1-.67-1.64A49.81,49.81,0,0,0,64,72.71,36.51,36.51,0,0,0,71.68,68l-6,24q-2.16,8.63-5.58,11.49-2.41,2-9,3.11L50.29,110a57.42,57.42,0,0,1,12.62-1.46,68,68,0,0,1,8.24.64q6.34.69,9.64.69a33.1,33.1,0,0,0,8.37-1.33l.76-3.55a31.67,31.67,0,0,1-10,1.77,37.27,37.27,0,0,1-8.62-1.2q1.59-4.87,2.86-9.89l5.1-19.76c2.15.13,3.73.19,4.74.19A42.64,42.64,0,0,0,102,72.39a29,29,0,0,0,12.2-9.68,21.32,21.32,0,0,0,4.15-12.22A15.41,15.41,0,0,0,115.38,41.42ZM59.05,68.9A35.91,35.91,0,0,1,45.9,73.16c0-.4,0-.79,0-1.21q0-8.13,5.61-16.47A41.88,41.88,0,0,1,67.4,41.77,48.12,48.12,0,0,1,76.93,38a40.27,40.27,0,0,1-4.78,17.28A33.66,33.66,0,0,1,59.05,68.9Zm44.34-6.54a21.5,21.5,0,0,1-8.57,7.81,19.05,19.05,0,0,1-8.86,2l-5.84-.32s5.68-20.17,7.43-28.79a43.57,43.57,0,0,0,1-6.69q9.39,0,14,3.75a12.4,12.4,0,0,1,4.59,10.15A21.15,21.15,0,0,1,103.39,62.36Z"/><path class="cls-1" d="M39.92,101.41h-1A5.31,5.31,0,0,1,38,104.2a2.14,2.14,0,0,1-1.7.81c-1.12,0-2.44-.77-3.94-2.31a25.8,25.8,0,0,0,3-5,9.46,9.46,0,0,1,1.18-2,3.2,3.2,0,0,1,1.06-.81,3.52,3.52,0,0,1,1.47-.26h.69V93.44H30.58v1.14h.87a3,3,0,0,1,1.93.52A1.75,1.75,0,0,1,34,96.54q0,2-2.58,5.2c-.89-1.06-1.72-2.15-2.48-3.26s-1.85-2.87-3.27-5.29a12.85,12.85,0,0,0,4.55-3.07,5.37,5.37,0,0,0,1.3-3.47,4.08,4.08,0,0,0-1.36-3.2,5.36,5.36,0,0,0-3.69-1.2,5.72,5.72,0,0,0-4.14,1.63,5.29,5.29,0,0,0-1.69,4,12.92,12.92,0,0,0,1.56,5.35,13.28,13.28,0,0,0-4.65,3.56,6.76,6.76,0,0,0-1.29,4,6.59,6.59,0,0,0,2,4.91,7.05,7.05,0,0,0,5.15,2,9,9,0,0,0,3.21-.57,13.76,13.76,0,0,0,3.41-2.1,13.33,13.33,0,0,0,2.85,2.1,5.24,5.24,0,0,0,2.31.57,4.18,4.18,0,0,0,3.36-1.6A7.17,7.17,0,0,0,39.92,101.41Zm-15.69-17a2.78,2.78,0,0,1,2.08-.86,2.7,2.7,0,0,1,2.09.9,3.58,3.58,0,0,1,.81,2.46,4.53,4.53,0,0,1-.89,2.83,8.15,8.15,0,0,1-3.26,2.21,11.93,11.93,0,0,1-1.65-5.24A3.25,3.25,0,0,1,24.23,84.38ZM25,105.75a4.82,4.82,0,0,1-4-2.28,7.66,7.66,0,0,1-1.63-4.36c0-1.8,1.16-3.35,3.48-4.63,1.51,2.63,2.68,4.58,3.53,5.82a45.85,45.85,0,0,0,2.86,3.78A6.85,6.85,0,0,1,25,105.75Z"/><path class="cls-1" d="M12.53,116.58a3.55,3.55,0,0,0-1.06-.42A7.57,7.57,0,0,0,9.78,116H8v7.27H9.8a7.68,7.68,0,0,0,1.61-.14,3.63,3.63,0,0,0,1.11-.44,3.23,3.23,0,0,0,1.15-1.25,4,4,0,0,0,0-3.63A3.22,3.22,0,0,0,12.53,116.58Zm.29,4.47A2.16,2.16,0,0,1,12,122a2.53,2.53,0,0,1-.95.38,6.27,6.27,0,0,1-1.22.11H8.93v-5.61h.91a6.51,6.51,0,0,1,1.16.09,3,3,0,0,1,.91.34,2.25,2.25,0,0,1,.89.92,3.13,3.13,0,0,1,.29,1.44A3.3,3.3,0,0,1,12.82,121.05Z"/><path class="cls-1" d="M17.86,117.67a2.49,2.49,0,0,0-1.92.79,3,3,0,0,0-.73,2.12,2.77,2.77,0,0,0,.76,2.09,2.94,2.94,0,0,0,2.12.73,3.86,3.86,0,0,0,1-.13,8.07,8.07,0,0,0,.94-.33v-1H20a2.58,2.58,0,0,1-.8.44,3,3,0,0,1-1.12.22,2.65,2.65,0,0,1-.77-.11,1.66,1.66,0,0,1-.6-.36,1.58,1.58,0,0,1-.42-.61,2.35,2.35,0,0,1-.15-.88h4v-.49a2.59,2.59,0,0,0-.6-1.83A2.2,2.2,0,0,0,17.86,117.67Zm-1.72,2.27a1.71,1.71,0,0,1,.5-1.08,1.58,1.58,0,0,1,1.17-.43,1.41,1.41,0,0,1,1.09.39,1.67,1.67,0,0,1,.37,1.12Z"/><path class="cls-1" d="M24.12,120.24l-.53-.1L23,120a1.64,1.64,0,0,1-.66-.28.61.61,0,0,1-.21-.51.62.62,0,0,1,.34-.57,1.75,1.75,0,0,1,.85-.19,3.41,3.41,0,0,1,1.84.61h.05v-1a4,4,0,0,0-.83-.29,4.19,4.19,0,0,0-1-.12,3.39,3.39,0,0,0-.94.13,2.11,2.11,0,0,0-.7.37,1.41,1.41,0,0,0-.42.53,1.53,1.53,0,0,0-.14.64,1.38,1.38,0,0,0,.3.9,1.9,1.9,0,0,0,1,.56c.17.05.36.09.57.13l.51.1a1.8,1.8,0,0,1,.72.28.64.64,0,0,1,.18.49.66.66,0,0,1-.34.62,1.93,1.93,0,0,1-1,.19,3,3,0,0,1-1-.19,3.77,3.77,0,0,1-1-.52h0v1a4.68,4.68,0,0,0,.84.31,3.92,3.92,0,0,0,1.11.15,2.67,2.67,0,0,0,1.69-.48,1.5,1.5,0,0,0,.62-1.23,1.32,1.32,0,0,0-.35-1A2,2,0,0,0,24.12,120.24Z"/><rect class="cls-1" x="26.71" y="115.96" width="1.04" height="0.95"/><rect class="cls-1" x="26.77" y="117.82" width="0.92" height="5.45"/><path class="cls-1" d="M33,118.06a3.39,3.39,0,0,0-.67-.29,2.64,2.64,0,0,0-.8-.1,2.42,2.42,0,0,0-.9.19,2.23,2.23,0,0,0-.77.54,2.71,2.71,0,0,0-.54.88,3.47,3.47,0,0,0-.2,1.22,3.1,3.1,0,0,0,.57,2,1.9,1.9,0,0,0,1.55.7,2.46,2.46,0,0,0,1-.16,3.41,3.41,0,0,0,.79-.5v.5a2.25,2.25,0,0,1-.07.6,1.09,1.09,0,0,1-.25.46,1,1,0,0,1-.47.31,2.21,2.21,0,0,1-.78.12,4.12,4.12,0,0,1-1-.13c-.32-.09-.56-.16-.71-.22H29.7v.94a7.78,7.78,0,0,0,.81.17,6,6,0,0,0,.85.06,2.57,2.57,0,0,0,1.94-.65,2.82,2.82,0,0,0,.63-2v-4.84h-.86Zm0,3.72a2.81,2.81,0,0,1-.74.41,2.26,2.26,0,0,1-.8.15,1.18,1.18,0,0,1-1.07-.47,2.44,2.44,0,0,1-.32-1.39,2.22,2.22,0,0,1,.43-1.48,1.51,1.51,0,0,1,1.19-.5,2.7,2.7,0,0,1,.63.07,3,3,0,0,1,.68.23Z"/><path class="cls-1" d="M38.49,117.67a2.42,2.42,0,0,0-1,.2,3.76,3.76,0,0,0-.89.56v-.61h-.91v5.46h.91V119.2a4,4,0,0,1,.79-.47,2,2,0,0,1,.79-.19,1.41,1.41,0,0,1,.59.11.65.65,0,0,1,.35.3,1.14,1.14,0,0,1,.16.52,5.12,5.12,0,0,1,.05.7v3.11h.92v-3.54a2.29,2.29,0,0,0-.47-1.54A1.7,1.7,0,0,0,38.49,117.67Z"/><path class="cls-1" d="M50.84,120.36a5.28,5.28,0,0,0,.12-1v-.47H50v.57c0,.22,0,.43,0,.61a2.63,2.63,0,0,1,0,.49,1.93,1.93,0,0,1-.1.43l-1.81-1.77a2.39,2.39,0,0,0,.75-.38,1.72,1.72,0,0,0,.44-.46,1.29,1.29,0,0,0,.2-.48,2.25,2.25,0,0,0,.06-.49,1.34,1.34,0,0,0-.52-1.08,2.14,2.14,0,0,0-1.37-.43,2.49,2.49,0,0,0-.87.15,1.92,1.92,0,0,0-.63.38,1.69,1.69,0,0,0-.39.54,1.5,1.5,0,0,0-.13.62,1.57,1.57,0,0,0,.24.9,2.44,2.44,0,0,0,.77.71,5.16,5.16,0,0,0-.51.35,2.54,2.54,0,0,0-.43.44,2.45,2.45,0,0,0-.29.56,2.06,2.06,0,0,0-.13.78,2,2,0,0,0,.67,1.55,2.44,2.44,0,0,0,1.69.6,2.7,2.7,0,0,0,1.2-.28,3.24,3.24,0,0,0,1.15-1l1.12,1.1h1.2l-1.85-1.8A3.9,3.9,0,0,0,50.84,120.36Zm-4.29-2.86a1,1,0,0,1,.28-.73.93.93,0,0,1,.73-.31.93.93,0,0,1,1,1,1.43,1.43,0,0,1-.24.86,1.59,1.59,0,0,1-.73.5,2.89,2.89,0,0,1-.83-.67A1.13,1.13,0,0,1,46.55,117.5Zm2.19,4.91a2,2,0,0,1-.9.22,1.52,1.52,0,0,1-1.18-.44,1.58,1.58,0,0,1-.42-1.15,1.89,1.89,0,0,1,.09-.6,1.79,1.79,0,0,1,.22-.46,1.56,1.56,0,0,1,.3-.32,2.29,2.29,0,0,1,.31-.2l2.33,2.28A1.92,1.92,0,0,1,48.74,122.41Z"/><path class="cls-1" d="M60.32,116.46a2.3,2.3,0,0,0-.8-.34,4.53,4.53,0,0,0-1.11-.11h-2v7.27h1v-2.71h1a3.9,3.9,0,0,0,1.29-.19,2.52,2.52,0,0,0,.89-.57,2.15,2.15,0,0,0,.47-.71,2.4,2.4,0,0,0,.17-.9,2.2,2.2,0,0,0-.23-1A2,2,0,0,0,60.32,116.46Zm-.23,2.35a1.25,1.25,0,0,1-.33.49,1.37,1.37,0,0,1-.59.34,3.59,3.59,0,0,1-1,.1H57.4v-2.9h1a4,4,0,0,1,.76.06,1.69,1.69,0,0,1,.53.22,1.15,1.15,0,0,1,.4.45,1.53,1.53,0,0,1,.13.66A1.76,1.76,0,0,1,60.09,118.81Z"/><path class="cls-1" d="M65.13,117.82a2,2,0,0,0-.86.19,4.22,4.22,0,0,0-1,.62v-.81h-.92v5.46h.92V119.4a3.87,3.87,0,0,1,.76-.48,1.83,1.83,0,0,1,.82-.19l.46,0,.4.07h0v-.94l-.32,0Z"/><path class="cls-1" d="M68.79,117.67a2.36,2.36,0,0,0-1.84.77,3.61,3.61,0,0,0,0,4.22,2.36,2.36,0,0,0,1.84.77,2.32,2.32,0,0,0,1.83-.77,3.57,3.57,0,0,0,0-4.22A2.32,2.32,0,0,0,68.79,117.67Zm1.15,4.44a1.51,1.51,0,0,1-2.3,0,2.48,2.48,0,0,1-.42-1.56,2.52,2.52,0,0,1,.41-1.57A1.55,1.55,0,0,1,70,119a2.52,2.52,0,0,1,.41,1.57A2.46,2.46,0,0,1,69.94,122.11Z"/><rect class="cls-1" x="73.39" y="115.96" width="1.04" height="0.95"/><path class="cls-1" d="M72.31,118.59h1.14V123a6.32,6.32,0,0,1,0,.67,1.3,1.3,0,0,1-.14.47.65.65,0,0,1-.32.29,1.32,1.32,0,0,1-.57.1,1.45,1.45,0,0,1-.45-.07,2.7,2.7,0,0,1-.37-.12h0v.88a4.64,4.64,0,0,0,.54.09,3.64,3.64,0,0,0,.51,0,1.74,1.74,0,0,0,1.31-.49,1.92,1.92,0,0,0,.49-1.44v-5.59H72.31Z"/><path class="cls-1" d="M78.44,117.67a2.46,2.46,0,0,0-1.92.79,3,3,0,0,0-.73,2.12,2.77,2.77,0,0,0,.76,2.09,2.9,2.9,0,0,0,2.12.73,3.73,3.73,0,0,0,1-.13,8.22,8.22,0,0,0,.95-.33v-1h0a2.7,2.7,0,0,1-.8.44,3,3,0,0,1-1.12.22,2.65,2.65,0,0,1-.77-.11,1.62,1.62,0,0,1-.61-.36,1.68,1.68,0,0,1-.41-.61,2.35,2.35,0,0,1-.15-.88h4v-.49a2.59,2.59,0,0,0-.6-1.83A2.21,2.21,0,0,0,78.44,117.67Zm-1.72,2.27a1.7,1.7,0,0,1,.49-1.08,1.6,1.6,0,0,1,1.18-.43,1.41,1.41,0,0,1,1.09.39,1.62,1.62,0,0,1,.36,1.12Z"/><path class="cls-1" d="M84.41,117.7a2.57,2.57,0,0,0-1.94.76,2.87,2.87,0,0,0-.73,2.1,3.65,3.65,0,0,0,.19,1.25,2.25,2.25,0,0,0,1.4,1.42,3.4,3.4,0,0,0,1.08.17,3.17,3.17,0,0,0,.88-.12,7.19,7.19,0,0,0,.87-.35v-1h0a3,3,0,0,1-.28.2,3.28,3.28,0,0,1-.37.22,2.44,2.44,0,0,1-.52.19,2.22,2.22,0,0,1-.57.07,1.52,1.52,0,0,1-1.24-.53,2.84,2.84,0,0,1,0-3,1.54,1.54,0,0,1,1.23-.53,2.35,2.35,0,0,1,.88.18,3.31,3.31,0,0,1,.86.5h0v-1a4.78,4.78,0,0,0-.83-.32A3.15,3.15,0,0,0,84.41,117.7Z"/><path class="cls-1" d="M88.28,116.25h-.92v1.57h-.62v.77h.62v2.9a2,2,0,0,0,.43,1.44,1.68,1.68,0,0,0,1.27.45,3.84,3.84,0,0,0,.55,0l.56-.11v-.83h0a2.49,2.49,0,0,1-.35.11,1.58,1.58,0,0,1-.47.07,1.35,1.35,0,0,1-.57-.09.65.65,0,0,1-.3-.29,1.18,1.18,0,0,1-.14-.45c0-.16,0-.38,0-.67v-2.49h1.89v-.77H88.28Z"/><polygon class="cls-1" points="94.87 123.28 99.66 123.28 99.66 122.42 95.83 122.42 95.83 119.72 99.66 119.72 99.66 118.86 95.83 118.86 95.83 116.86 99.66 116.86 99.66 116.01 94.87 116.01 94.87 123.28"/><rect class="cls-1" x="101.45" y="121.88" width="1.17" height="1.39"/><path class="cls-1" d="M109.33,120.43a3.81,3.81,0,0,1-.08.89,1.74,1.74,0,0,1-.27.64,1.37,1.37,0,0,1-.58.48,2.56,2.56,0,0,1-1.78,0A1.37,1.37,0,0,1,106,122a1.72,1.72,0,0,1-.27-.62,3.91,3.91,0,0,1-.08-.93V116h-1v4.35a5,5,0,0,0,.17,1.39,2.32,2.32,0,0,0,.57,1,2.18,2.18,0,0,0,.86.54,3.55,3.55,0,0,0,1.19.18,3.75,3.75,0,0,0,1.17-.17,2.27,2.27,0,0,0,1.45-1.52,5.21,5.21,0,0,0,.17-1.38V116h-1Z"/><rect class="cls-1" x="112.31" y="121.88" width="1.17" height="1.39"/></g></g></svg>